HIERARCHY
ROOT joint_Root
{
	OFFSET 0.0 0.0 0.0
	CHANNELS 6 Xposition Yposition Zposition Zrotation Xrotation Yrotation 
	JOINT Hips
	{
		OFFSET -0.726466 93.3139 -2.00062
		CHANNELS 6 Xposition Yposition Zposition Zrotation Xrotation Yrotation 
		JOINT Spine
		{
			OFFSET 15.7357 0.0 0.0
			CHANNELS 6 Xposition Yposition Zposition Zrotation Xrotation Yrotation 
			JOINT Chest
			{
				OFFSET 8.98455 -0.406207 0.0
				CHANNELS 6 Xposition Yposition Zposition Zrotation Xrotation Yrotation 
				JOINT Neck
				{
					OFFSET 16.3773 0.0 0.0
					CHANNELS 6 Xposition Yposition Zposition Zrotation Xrotation Yrotation 
					JOINT Head
					{
						OFFSET 6.45672 0.0 0.0
						CHANNELS 6 Xposition Yposition Zposition Zrotation Xrotation Yrotation 
						End Site
						{
							OFFSET 0.0 0.0 0.0
						}
					}
				}
				JOINT Shoulder_L
				{
					OFFSET 12.9942 -0.242716 4.98039
					CHANNELS 6 Xposition Yposition Zposition Zrotation Xrotation Yrotation 
					JOINT UpperArm_L
					{
						OFFSET 5.34809 0.0 0.0
						CHANNELS 6 Xposition Yposition Zposition Zrotation Xrotation Yrotation 
						JOINT LowerArm_L
						{
							OFFSET 24.3286 1.87007e-05 0.0
							CHANNELS 6 Xposition Yposition Zposition Zrotation Xrotation Yrotation 
							JOINT Hand_L
							{
								OFFSET 22.2916 0.0 0.0
								CHANNELS 6 Xposition Yposition Zposition Zrotation Xrotation Yrotation 
								End Site
								{
									OFFSET 0.0 0.0 0.0
								}
							}
						}
					}
				}
				JOINT Shoulder_R
				{
					OFFSET 12.9945 -0.242716 -4.98039
					CHANNELS 6 Xposition Yposition Zposition Zrotation Xrotation Yrotation 
					JOINT UpperArm_R
					{
						OFFSET -5.34813 0.0 0.0
						CHANNELS 6 Xposition Yposition Zposition Zrotation Xrotation Yrotation 
						JOINT LowerArm_R
						{
							OFFSET -24.3289 0.000322201 0.0
							CHANNELS 6 Xposition Yposition Zposition Zrotation Xrotation Yrotation 
							JOINT Hand_R
							{
								OFFSET -22.2915 -0.000108084 0.0
								CHANNELS 6 Xposition Yposition Zposition Zrotation Xrotation Yrotation 
								End Site
								{
									OFFSET 0.0 0.0 0.0
								}
							}
						}
					}
				}
			}
		}
		JOINT UpperLeg_L
		{
			OFFSET -2.19248 -6.46944 0.0
			CHANNELS 6 Xposition Yposition Zposition Zrotation Xrotation Yrotation 
			JOINT LowerLeg_L
			{
				OFFSET 39.0811 0.0 -1.23785e-05
				CHANNELS 6 Xposition Yposition Zposition Zrotation Xrotation Yrotation 
				JOINT Foot_L
				{
					OFFSET 40.9854 0.0 -1.26872e-05
					CHANNELS 6 Xposition Yposition Zposition Zrotation Xrotation Yrotation 
					JOINT Toes_L
					{
						OFFSET 11.7543 0.0 0.0
						CHANNELS 6 Xposition Yposition Zposition Zrotation Xrotation Yrotation 
						End Site
						{
							OFFSET 0.0 0.0 0.0
						}
					}
				}
			}
		}
		JOINT UpperLeg_R
		{
			OFFSET -2.19251 6.46944 0.0
			CHANNELS 6 Xposition Yposition Zposition Zrotation Xrotation Yrotation 
			JOINT LowerLeg_R
			{
				OFFSET -39.0811 -0.00228153 -0.0401928
				CHANNELS 6 Xposition Yposition Zposition Zrotation Xrotation Yrotation 
				JOINT Foot_R
				{
					OFFSET -40.9854 0.0 0.0
					CHANNELS 6 Xposition Yposition Zposition Zrotation Xrotation Yrotation 
					JOINT Toes_R
					{
						OFFSET -11.7543 0.0 0.0
						CHANNELS 6 Xposition Yposition Zposition Zrotation Xrotation Yrotation 
						End Site
						{
							OFFSET 0.0 0.0 0.0
						}
					}
				}
			}
		}
	}
}
MOTION
Frames:	4
Frame Time:	0.0333333
0.000000 0.000000 0.000000 0.000000 0.000000 -0.000000 -2.361060 92.865900 -0.419189 89.390600 -0.163151 2.328620 15.735700 0.000005 -0.000001 88.931900 86.753200 -88.417100 8.984550 -0.406207 -0.000000 -1.272540 -0.161612 1.027320 16.377300 -0.000001 -0.000001 4.931990 -2.420400 0.660015 6.456720 -0.000001 -0.000000 8.215590 -2.276860 -3.771950 12.994200 -0.242716 4.980390 -89.140600 -2.829610 -73.097500 5.348090 -0.000007 -0.000001 -78.708800 -27.371500 -76.095700 24.328600 0.000019 0.000005 10.165500 -1.596710 -98.833200 22.291600 -0.000001 0.000005 16.073100 5.545380 -8.489960 12.994500 -0.242716 -4.980390 87.745900 7.311700 -72.814100 -5.348130 -0.000001 -0.000004 -63.686200 40.921000 -11.313600 -24.328900 0.000322 -0.000009 3.173780 8.952920 -19.617300 -22.291500 -0.000108 -0.000004 6.729470 5.363090 -1.773860 -2.192480 -6.469440 -0.000000 -175.972000 -6.456570 -1.476600 39.081100 -0.000007 -0.000012 -0.063617 0.211801 16.718100 40.985400 -0.000006 -0.000013 -1.118760 5.296290 -63.071400 11.754300 -0.000000 0.000003 -0.000002 -0.000034 -16.578800 -2.192510 6.469440 -0.000001 -179.873000 11.467400 -179.782000 -39.081100 -0.002282 -0.040193 -0.052066 0.206039 15.048800 -40.985400 0.000008 0.000006 2.391610 6.502210 -63.476000 -11.754300 -0.000006 -0.000006 -0.005946 -0.070347 -19.436100
0.000000 0.000000 0.000000 0.000000 0.000000 -0.000000 -2.388070 92.873300 -0.462121 89.419200 -0.185421 2.232020 15.735700 0.000005 -0.000001 88.640700 86.765300 -88.145200 8.984550 -0.406207 -0.000000 -1.297510 -0.192608 0.988419 16.377300 -0.000001 -0.000001 4.879640 -2.422020 0.621729 6.456720 -0.000001 -0.000000 8.153170 -2.255690 -3.768110 12.994200 -0.242716 4.980390 -89.131000 -2.845010 -73.006800 5.348090 -0.000007 -0.000001 -78.576000 -27.619100 -75.693700 24.328600 0.000019 0.000005 10.017000 -1.656870 -99.296800 22.291600 -0.000001 0.000005 15.952400 5.544340 -8.442050 12.994500 -0.242716 -4.980390 87.731600 7.335090 -72.763200 -5.348130 -0.000001 -0.000004 -63.591600 40.874600 -11.367600 -24.328900 0.000322 -0.000009 3.158450 8.856390 -19.724600 -22.291500 -0.000108 -0.000004 6.751040 5.361380 -1.721530 -2.192480 -6.469440 -0.000000 -175.997000 -6.489370 -1.573620 39.081100 -0.000007 -0.000012 -0.063566 0.212605 16.646000 40.985400 -0.000006 -0.000013 -1.143200 5.280830 -62.995000 11.754300 -0.000000 0.000003 -0.000003 -0.000037 -16.579000 -2.192510 6.469440 -0.000001 -179.858000 11.473000 -179.923000 -39.081100 -0.002282 -0.040193 -0.051656 0.204431 15.054700 -40.985400 0.000008 0.000006 2.419310 6.532330 -63.445500 -11.754300 -0.000006 -0.000006 -0.005897 -0.069899 -19.417800
0.000000 0.000000 0.000000 0.000000 0.000000 -0.000000 -2.408270 92.880700 -0.482912 89.418500 -0.260039 2.225170 15.735700 0.000005 -0.000001 88.620800 86.745900 -88.124300 8.984550 -0.406207 -0.000000 -1.258610 -0.195713 0.990501 16.377300 -0.000001 -0.000001 4.767410 -2.428890 0.630427 6.456720 -0.000001 -0.000000 8.070730 -2.217740 -3.846820 12.994200 -0.242716 4.980390 -89.141100 -2.800210 -72.940200 5.348090 -0.000007 -0.000001 -77.939000 -27.905800 -74.372500 24.328600 0.000019 0.000005 9.057440 -1.652910 -100.257000 22.291600 -0.000001 0.000005 16.065500 5.540300 -8.256330 12.994500 -0.242716 -4.980390 87.715500 7.356080 -72.694000 -5.348130 -0.000001 -0.000004 -63.479200 40.847800 -11.453800 -24.328900 0.000322 -0.000009 3.185980 8.910350 -19.773200 -22.291500 -0.000108 -0.000004 6.802620 5.362330 -1.750700 -2.192480 -6.469440 -0.000000 -175.977000 -6.535940 -1.544290 39.081100 -0.000007 -0.000012 -0.063827 0.214526 16.569100 40.985400 -0.000006 -0.000013 -1.159530 5.302770 -62.949400 11.754300 -0.000000 0.000003 -0.000002 -0.000028 -16.578600 -2.192510 6.469440 -0.000001 -179.843000 11.419600 -179.913000 -39.081100 -0.002282 -0.040193 -0.051037 0.203013 14.992100 -40.985400 0.000008 0.000006 2.431690 6.565640 -63.402300 -11.754300 -0.000006 -0.000006 -0.005997 -0.070812 -19.455000
0.000000 0.000000 0.000000 0.000000 0.000000 -0.000000 -2.401200 92.885800 -0.522055 89.387600 -0.325231 2.101890 15.735700 0.000005 -0.000001 88.646200 86.772300 -88.131500 8.984550 -0.406207 -0.000000 -1.311350 -0.193255 1.026800 16.377300 -0.000001 -0.000001 4.610070 -2.425060 0.694926 6.456720 -0.000001 -0.000000 8.006900 -2.205590 -3.934560 12.994200 -0.242716 4.980390 -89.174800 -2.672330 -72.832800 5.348090 -0.000007 -0.000001 -76.471100 -28.012900 -71.749000 24.328600 0.000019 0.000005 7.530110 -1.580120 -101.784000 22.291600 -0.000001 0.000005 16.061900 5.539950 -8.240510 12.994500 -0.242716 -4.980390 87.680300 7.410070 -72.563200 -5.348130 -0.000001 -0.000004 -63.305600 40.863100 -11.535900 -24.328900 0.000322 -0.000009 3.182000 8.872550 -19.827300 -22.291500 -0.000108 -0.000004 6.851290 5.362410 -1.753260 -2.192480 -6.469440 -0.000000 -175.962000 -6.636860 -1.703240 39.081100 -0.000007 -0.000012 -0.063213 0.212176 16.590200 40.985400 -0.000006 -0.000013 -1.155170 5.306760 -62.929700 11.754300 -0.000000 0.000003 -0.000001 -0.000023 -16.578400 -2.192510 6.469440 -0.000001 -179.763000 11.302800 179.936000 -39.081100 -0.002282 -0.040193 -0.050592 0.201847 14.957100 -40.985400 0.000008 0.000006 2.426890 6.493400 -63.342000 -11.754300 -0.000006 -0.000006 -0.006062 -0.071402 -19.479100
